<?xml version="1.0" ?><svg xmlns="http://www.w3.org/2000/svg" xmlns:xlink="http://www.w3.org/1999/xlink" version="1.1" viewBox="0 0 508.359 508.359" style="enable-background:new 0 0 508.359 508.359;" xml:space="preserve"><g id="_x32_9_x2C__Astrantia_x2C__fragrance_x2C__wellness_x2C__beauty_x2C__bloom_x2C__spring_x2C__flower_x2C__nature"><g><g><path style="fill:#DA5461;" d="M149.875,106.56c5.496-0.543,9.513-5.438,8.971-10.934c-2.105-21.339,0.325-40.54,6.859-55.043     c14.876,5.635,30.172,17.493,43.771,34.07c3.503,4.271,9.803,4.891,14.074,1.389c4.27-3.503,4.892-9.805,1.389-14.074     c-18.585-22.653-40.553-37.959-61.857-43.1c-4.219-1.021-8.614,0.802-10.878,4.506c-11.43,18.698-16.14,45.056-13.264,74.215     C139.48,103.048,144.329,107.096,149.875,106.56z"/><path style="fill:#DA5461;" d="M223.551,432.317c-4.271-3.502-10.571-2.879-14.074,1.389     c-13.6,16.577-28.895,28.436-43.771,34.07c-6.534-14.503-8.965-33.704-6.859-55.043c0.542-5.496-3.475-10.391-8.971-10.934     c-5.511-0.534-10.391,3.475-10.934,8.971c-2.876,29.159,1.834,55.517,13.264,74.215c2.266,3.708,6.661,5.523,10.878,4.506     c21.304-5.141,43.271-20.446,61.857-43.1C228.442,442.122,227.82,435.82,223.551,432.317z"/><path style="fill:#DA5461;" d="M358.484,401.8c-5.496,0.543-9.513,5.438-8.971,10.934c2.105,21.339-0.325,40.54-6.859,55.043     c-14.876-5.635-30.172-17.493-43.772-34.07c-3.504-4.27-9.804-4.891-14.074-1.389c-4.27,3.503-4.892,9.805-1.389,14.074     c18.585,22.653,40.553,37.959,61.857,43.1c4.277,1.032,8.645-0.852,10.878-4.506c11.43-18.698,16.14-45.056,13.264-74.215     C368.875,405.274,363.982,401.265,358.484,401.8z"/><path style="fill:#DA5461;" d="M95.626,349.514c-21.341,2.105-40.539-0.324-55.043-6.859     c5.635-14.876,17.493-30.172,34.07-43.772c4.27-3.503,4.892-9.805,1.389-14.074c-3.504-4.271-9.803-4.891-14.074-1.389     c-22.653,18.585-37.959,40.553-43.1,61.857c-1.019,4.22,0.802,8.614,4.506,10.878c21.255,12.993,49.299,15.72,74.215,13.264     c5.496-0.543,9.513-5.438,8.971-10.934C106.017,352.987,101.122,348.977,95.626,349.514z"/><path style="fill:#DA5461;" d="M345.276,18.868c-21.304,5.141-43.272,20.446-61.857,43.1c-3.503,4.27-2.881,10.571,1.389,14.074     c4.271,3.502,10.57,2.88,14.074-1.389c13.6-16.577,28.896-28.436,43.772-34.07c6.534,14.503,8.965,33.704,6.859,55.043     c-0.542,5.496,3.475,10.391,8.971,10.934c5.571,0.537,10.397-3.535,10.934-8.971c2.876-29.159-1.834-55.517-13.264-74.215     C353.892,19.671,349.499,17.851,345.276,18.868z"/><path style="fill:#DA5461;" d="M412.733,158.846c21.341-2.102,40.539,0.325,55.043,6.859     c-5.635,14.876-17.493,30.172-34.07,43.771c-4.27,3.503-4.892,9.805-1.389,14.074c3.491,4.255,9.79,4.902,14.074,1.389     c22.653-18.585,37.959-40.553,43.1-61.856c1.019-4.22-0.802-8.614-4.506-10.878c-18.698-11.43-45.059-16.138-74.215-13.264     c-5.496,0.543-9.513,5.438-8.971,10.934C402.343,155.372,407.24,159.381,412.733,158.846z"/><path style="fill:#DA5461;" d="M446.392,283.42c-4.271-3.502-10.57-2.88-14.074,1.389c-3.503,4.27-2.881,10.571,1.389,14.074     c16.577,13.6,28.436,28.896,34.07,43.772c-14.503,6.534-33.706,8.965-55.043,6.859c-5.509-0.537-10.391,3.474-10.934,8.971     c-0.542,5.496,3.475,10.391,8.971,10.934c24.909,2.454,52.958-0.27,74.215-13.264c3.704-2.264,5.524-6.658,4.506-10.878     C484.351,323.973,469.045,302.005,446.392,283.42z"/><path style="fill:#DA5461;" d="M97.589,138.941c-29.157-2.874-55.517,1.834-74.215,13.264c-3.704,2.264-5.524,6.658-4.506,10.878     c5.141,21.304,20.446,43.271,43.1,61.856c4.306,3.531,10.599,2.845,14.074-1.389c3.503-4.27,2.881-10.571-1.389-14.074     c-16.577-13.6-28.436-28.896-34.07-43.771c14.504-6.534,33.704-8.967,55.043-6.859c5.514,0.536,10.391-3.474,10.934-8.971     C107.102,144.379,103.085,139.484,97.589,138.941z"/><g><path style="fill:#283954;" d="M241.298,179.411c-2.352-4.998-8.311-7.141-13.307-4.789c-4.997,2.353-7.141,8.31-4.789,13.307      c4.771,10.136,8.075,20.12,9.82,29.677c0.881,4.826,5.089,8.206,9.825,8.206c6.252,0,10.97-5.658,9.849-11.798      C250.641,202.755,246.806,191.112,241.298,179.411z"/><path style="fill:#283954;" d="M263.703,282.713c-5.433,0.992-9.033,6.201-8.04,11.634c1.611,8.825,4.326,17.917,8.066,27.023      c2.099,5.109,7.941,7.549,13.05,5.45c5.108-2.099,7.549-7.941,5.45-13.05c-3.212-7.817-5.53-15.562-6.893-23.017      C274.346,285.319,269.138,281.72,263.703,282.713z"/><path style="fill:#283954;" d="M506.443,248.293c-21.298-29.248-67.997-48.337-119.566-49.078      c35.939-36.989,55.461-83.507,49.841-119.249c-0.675-4.287-4.038-7.65-8.325-8.325c-35.747-5.619-82.262,13.903-119.249,49.842      c-0.74-51.57-19.83-98.269-49.078-119.567c-3.508-2.555-8.266-2.555-11.773,0c-29.248,21.298-48.337,67.997-49.078,119.566      c-36.988-35.94-83.5-55.458-119.249-49.841c-4.287,0.675-7.65,4.038-8.325,8.325c-5.619,35.742,13.902,82.26,49.842,119.249      c-51.57,0.74-98.269,19.83-119.567,49.078c-2.555,3.509-2.555,8.265,0,11.773c21.298,29.248,67.997,48.337,119.566,49.078      c-35.939,36.989-55.461,83.507-49.841,119.249c0.675,4.287,4.038,7.65,8.325,8.325c4.079,0.642,8.293,0.955,12.622,0.955      c33.608-0.003,73.86-18.955,106.627-50.792c0.742,51.568,19.831,98.264,49.078,119.562c3.508,2.555,8.266,2.555,11.773,0      c29.247-21.297,48.336-67.993,49.078-119.561c32.769,31.839,73.018,50.791,106.627,50.791c4.327,0,8.545-0.314,12.622-0.955      c4.287-0.675,7.65-4.038,8.325-8.325c5.619-35.742-13.902-82.26-49.842-119.249c51.57-0.741,98.268-19.83,119.567-49.078      C508.998,256.558,508.998,251.802,506.443,248.293z M383.77,289.18c-34.272,0-66.624-8.785-88.76-24.103      c-4.541-3.142-10.772-2.008-13.913,2.533c-3.144,4.542-2.009,10.771,2.532,13.913c18.978,13.133,44.155,22.079,71.624,25.764      c5.262,4.266,10.407,8.876,15.306,13.774c30.277,30.277,48.111,67.265,47.115,96.613c-29.316,1.027-66.335-16.837-96.613-47.114      c-7.529-7.531-14.402-15.604-20.429-23.993c-3.222-4.486-9.469-5.514-13.955-2.289c-4.486,3.222-5.511,9.47-2.289,13.955      c1.2,1.671,2.441,3.327,3.7,4.973c0.711,6.719,1.092,13.616,1.092,20.564c0,42.818-13.544,81.581-35,101.628      c-21.456-20.047-35-58.81-35-101.628c0-34.272,8.785-66.624,24.104-88.76c3.143-4.542,2.008-10.771-2.533-13.913      c-4.541-3.145-10.771-2.009-13.913,2.532c-13.133,18.978-22.079,44.155-25.764,71.624c-4.266,5.262-8.876,10.407-13.774,15.306      c-30.278,30.278-67.258,48.136-96.613,47.115c-0.996-29.349,16.838-66.336,47.115-96.613      c24.225-24.226,53.313-40.891,79.804-45.723c5.433-0.991,9.034-6.199,8.043-11.633c-0.992-5.433-6.206-9.034-11.633-8.043      c-22.704,4.141-46.824,15.617-68.844,32.424c-6.724,0.712-13.627,1.094-20.581,1.094c-42.818,0-81.581-13.544-101.628-35      c20.047-21.456,58.81-35,101.628-35c34.272,0,66.624,8.785,88.76,24.104c4.541,3.142,10.771,2.008,13.913-2.533      c3.144-4.542,2.009-10.77-2.532-13.913c-18.978-13.133-44.155-22.079-71.624-25.764c-5.262-4.266-10.407-8.876-15.306-13.774      c-30.277-30.277-48.111-67.265-47.115-96.613c29.305-1.018,66.335,16.837,96.613,47.114      c5.777,5.778,11.166,11.871,16.018,18.108c3.391,4.36,9.674,5.145,14.032,1.755c3.714-2.888,4.823-7.871,2.978-11.979      c-0.748-6.884-1.147-13.962-1.147-21.094c0-42.818,13.544-81.581,35-101.628c21.456,20.047,35,58.81,35,101.628      c0,34.272-8.785,66.624-24.103,88.76c-3.143,4.542-2.008,10.77,2.533,13.913c4.549,3.15,10.777,2,13.913-2.532      c13.134-18.978,22.079-44.155,25.764-71.624c4.266-5.262,8.876-10.407,13.774-15.306c30.279-30.278,67.274-48.141,96.613-47.115      c0.996,29.349-16.838,66.336-47.115,96.613c-24.225,24.226-53.313,40.891-79.804,45.723c-5.433,0.991-9.034,6.199-8.043,11.633      c0.987,5.407,6.17,9.037,11.633,8.043c22.704-4.141,46.824-15.617,68.844-32.424c6.724-0.712,13.626-1.094,20.581-1.094      c42.818,0,81.581,13.544,101.628,35C465.351,275.636,426.588,289.18,383.77,289.18z"/></g><path style="fill:#DA5461;" d="M304.18,254.18c0-27.57-22.43-50-50-50s-50,22.43-50,50s22.43,50,50,50     S304.18,281.75,304.18,254.18z M254.18,284.18c-16.542,0-30-13.458-30-30s13.458-30,30-30s30,13.458,30,30     S270.722,284.18,254.18,284.18z"/></g></g></g><g id="Layer_1"/></svg>